<?xml version="1.0" encoding="utf-8"?>
<!-- Generator: Adobe Illustrator 22.1.0, SVG Export Plug-In . SVG Version: 6.00 Build 0)  -->
<svg version="1.1" id="Layer_1" xmlns="http://www.w3.org/2000/svg" xmlns:xlink="http://www.w3.org/1999/xlink" x="0px" y="0px"
	 viewBox="0 0 1000 113.7" style="enable-background:new 0 0 1000 113.7;" xml:space="preserve">
<style type="text/css">
	.st0{display:none;}
	.st1{fill-rule:evenodd;clip-rule:evenodd;fill:#2471B9;}
	.st2{fill-rule:evenodd;clip-rule:evenodd;fill:#458CCA;}
	.st3{fill-rule:evenodd;clip-rule:evenodd;fill:#75B5E3;}
	.st4{fill:#000000;}
</style>
<g>
	<polygon class="st1" points="82,31.1 109.5,2.3 109.5,85.9 82,111.1 82,31.1 	"/>
	<polygon class="st2" points="41.5,45.8 54.8,56.7 69,44.1 69,85.9 41.5,111.1 41.5,45.8 	"/>
	<polygon class="st3" points="28.6,31.1 1,2.3 1,111.4 28.6,87.9 28.6,31.1 	"/>
	<g>
		<polygon class="st4" points="335.9,65.9 373.6,65.9 373.6,47.2 335.9,47.2 335.9,34.1 378.8,34.1 378.8,15.3 315.4,15.3 
			315.4,98.4 379.4,98.4 379.4,79.6 335.9,79.6 		"/>
		<polygon class="st4" points="203.9,47.8 183.7,15.3 162.3,15.3 162.3,98.4 182.7,98.4 182.7,50.1 202.6,80.3 204.7,80.3 
			224.8,49.8 224.8,98.4 245.4,98.4 245.4,15.3 224,15.3 		"/>
		<path class="st4" d="M480.2,47.5c-14.2-3.6-16.1-5.1-16.1-9v-0.2c0-3.3,3.4-5.4,8.7-5.4c6,0,12.5,2.5,19.9,7.6l1.3,0.9l10.8-15.7
			l-1.1-0.9c-8.7-7-19-10.5-30.7-10.5c-17.4,0-29.5,10.5-29.5,25.6V40c0,17.5,12,21.9,27.7,25.9c13.9,3.6,14.9,5.7,14.9,8.7v0.2
			c0,3.8-3.7,6-10,6c-7.9,0-15.2-3-22.9-9.4l-1.2-1l-12.3,14.8l1.1,1c9.5,8.5,21.9,13.2,35,13.2c18.8,0,30.9-10.3,30.9-26.3V73
			C506.7,57.5,496.1,51.6,480.2,47.5z"/>
		<path class="st4" d="M910.9,43.5v-0.2c0-7.9-2.5-14.6-7.3-19.4c-5.6-5.6-14-8.6-24.4-8.6H841v83.1h20.7V72.8h11.5l17.1,25.6h24.3
			L894.5,69C905.1,64.4,910.9,55.4,910.9,43.5z M889.9,44.2v0.2c0,6.1-4.5,9.8-11.9,9.8h-16.3V34.3h15.9
			C883.3,34.3,889.9,36,889.9,44.2z"/>
		<path class="st4" d="M606,47.5c-14.2-3.6-16.1-5.1-16.1-9v-0.2c0-3.3,3.4-5.4,8.7-5.4c6,0,12.5,2.5,19.9,7.6l1.3,0.9l10.8-15.7
			l-1.1-0.9c-8.7-7-19-10.5-30.7-10.5c-17.4,0-29.5,10.5-29.5,25.6V40c0,17.5,12,21.9,27.7,25.9c13.9,3.6,14.9,5.7,14.9,8.7v0.2
			c0,3.8-3.7,6-10,6c-7.9,0-15.2-3-22.9-9.4l-1.2-1l-12.3,14.8l1.1,1c9.5,8.5,21.9,13.2,35,13.2c18.8,0,30.9-10.3,30.9-26.3V73
			C632.5,57.5,621.9,51.6,606,47.5z"/>
		<rect x="978.3" y="15.3" class="st4" width="20.7" height="83.1"/>
		<path class="st4" d="M724.9,14.7l-35.6,83.6h21.3l7.3-17.9h31.7l7.3,17.9h21.8l-35.6-83.6H724.9z M742.1,61.8h-16.6l8.3-20.3
			L742.1,61.8z"/>
	</g>
</g>
</svg>
